<svg xmlns="http://www.w3.org/2000/svg" xmlns:xlink="http://www.w3.org/1999/xlink" width="500" zoomAndPan="magnify" viewBox="0 0 375 374.999991" height="500" preserveAspectRatio="xMidYMid meet" version="1.0"><defs><clipPath id="bba3d2ed4b"><path d="M 75 52.148438 L 299.964844 52.148438 L 299.964844 322.898438 L 75 322.898438 Z M 75 52.148438 " clip-rule="nonzero"/></clipPath></defs><rect x="-37.5" width="450" fill="#ffffff" y="-37.499999" height="449.999989" fill-opacity="1"/><rect x="-37.5" width="450" fill="#008080" y="-37.499999" height="449.999989" fill-opacity="1"/><g clip-path="url(#bba3d2ed4b)"><path fill="#ffffff" d="M 181.617188 52.546875 C 177.761719 52.984375 175.929688 53.488281 172.558594 55.039062 C 163.980469 58.988281 158.835938 65.355469 156.570312 74.808594 L 155.726562 78.324219 L 149.085938 78.582031 C 141.730469 78.867188 140.027344 79.15625 136.96875 80.652344 C 133 82.597656 128.273438 87.707031 127.71875 90.65625 C 127.484375 91.898438 127.425781 91.929688 125.101562 92.140625 C 123.792969 92.257812 118.023438 92.53125 112.28125 92.753906 C 99.046875 93.265625 96.882812 93.566406 92.945312 95.457031 C 84.75 99.390625 78.871094 106.175781 76.507812 114.417969 C 75.03125 119.570312 74.871094 131.632812 75.097656 219.285156 L 75.308594 300.382812 L 77.636719 304.941406 C 81.203125 311.917969 84.925781 316.003906 90.570312 319.140625 C 95.5 321.878906 96.761719 322.105469 109.382812 322.507812 C 115.71875 322.710938 155.59375 322.820312 199.09375 322.757812 L 277.402344 322.644531 L 280.34375 321.242188 C 284.546875 319.238281 287.457031 317.285156 290.292969 314.570312 C 293.691406 311.320312 295.953125 308.027344 297.945312 303.433594 L 299.636719 299.539062 L 299.703125 274.742188 C 299.738281 261.105469 299.882812 250.992188 300.023438 252.265625 C 300.164062 253.542969 300.308594 226.960938 300.34375 193.199219 C 300.386719 152.488281 300.28125 131.808594 300.023438 131.808594 C 299.78125 131.808594 299.636719 129.585938 299.632812 125.914062 C 299.628906 118.914062 299.230469 116.109375 297.648438 112.007812 C 295.308594 105.933594 290.738281 100.527344 284.890625 96.898438 C 280.109375 93.933594 278.332031 93.523438 268.535156 93.128906 C 263.839844 92.9375 257.359375 92.777344 254.128906 92.769531 L 248.261719 92.753906 L 246.613281 89.757812 C 244.460938 85.84375 241.371094 82.613281 238.375 81.140625 C 235.210938 79.585938 231.714844 78.929688 224.902344 78.605469 C 219.507812 78.347656 219.183594 78.289062 219.035156 77.519531 C 217.859375 71.375 216.222656 67.410156 213.214844 63.4375 C 209.800781 58.925781 204.035156 55.105469 197.933594 53.316406 C 194.613281 52.339844 186.703125 51.964844 181.617188 52.546875 M 182.660156 69.296875 C 180.320312 70.074219 177.761719 71.453125 176.535156 72.589844 C 174.144531 74.8125 173.480469 77.5 172.949219 87.128906 C 172.726562 91.148438 172.660156 91.414062 171.609375 92.394531 C 168.886719 94.9375 165.660156 95.453125 152.402344 95.457031 L 143.410156 95.460938 L 143.410156 115.183594 L 231.578125 115.183594 L 231.578125 95.460938 L 206.613281 95.460938 L 204.421875 93.238281 C 203.21875 92.015625 202.046875 90.523438 201.824219 89.925781 C 201.597656 89.328125 201.414062 87.152344 201.40625 85.089844 C 201.394531 77.761719 200.367188 74.039062 197.824219 72.101562 C 194.996094 69.945312 192.238281 69.039062 188.085938 68.90625 C 185.574219 68.824219 183.664062 68.960938 182.660156 69.296875 M 104.160156 109.652344 C 101.792969 109.964844 98.703125 111.015625 97.277344 111.988281 C 96.46875 112.542969 94.851562 114.429688 93.683594 116.183594 L 91.5625 119.375 L 91.675781 207.089844 L 91.785156 294.804688 L 93.023438 297.417969 C 94.476562 300.484375 97.589844 303.941406 99.855469 305 C 100.949219 305.511719 102.796875 305.835938 105.707031 306.03125 C 108.046875 306.183594 146.820312 306.28125 191.867188 306.246094 L 273.773438 306.183594 L 276.554688 304.117188 C 280.332031 301.308594 280.945312 300.566406 281.621094 297.976562 C 283.109375 292.25 283.195312 287.15625 283.199219 204.507812 C 283.203125 141.96875 283.097656 123.984375 282.714844 121.5625 C 282.082031 117.570312 280.746094 114.878906 278.3125 112.691406 C 275.132812 109.832031 274.226562 109.671875 260.289062 109.476562 L 248.207031 109.308594 L 248.199219 111.566406 C 248.183594 118.050781 244.699219 125.242188 240.027344 128.4375 C 237.082031 130.449219 234.421875 131.015625 225.972656 131.425781 C 216.792969 131.871094 166.011719 131.882812 150.925781 131.445312 C 139.738281 131.121094 139.671875 131.117188 137.582031 130.0625 C 134.820312 128.667969 130.375 124.128906 129.007812 121.300781 C 127.539062 118.265625 126.78125 115.101562 126.78125 112.007812 L 126.78125 109.382812 L 116.050781 109.441406 C 110.148438 109.472656 104.800781 109.566406 104.160156 109.652344 M 75.152344 193.488281 C 75.152344 227.304688 75.199219 241.082031 75.253906 224.105469 C 75.3125 207.125 75.3125 179.457031 75.253906 162.617188 C 75.199219 145.78125 75.152344 159.671875 75.152344 193.488281 M 137.527344 153.652344 C 125.289062 155.65625 112.503906 163.863281 107.933594 172.65625 C 105.507812 177.316406 104.734375 180.980469 104.472656 189.042969 C 104.222656 196.796875 104.550781 198.734375 106.902344 203.433594 C 111.984375 213.582031 119.5625 218.882812 140.511719 226.941406 C 159.535156 234.257812 163.585938 237.40625 164.1875 245.339844 C 164.738281 252.605469 161.410156 258.933594 155.660156 261.566406 C 151.808594 263.328125 149.03125 263.824219 143.21875 263.792969 C 139.816406 263.769531 136.726562 263.527344 134.902344 263.136719 C 130.949219 262.289062 125.738281 259.621094 121.5625 256.3125 C 116.871094 252.589844 114.058594 251.179688 111.3125 251.175781 C 108.90625 251.171875 108.035156 251.546875 105.835938 253.53125 C 97.898438 260.703125 103.332031 272.011719 118.074219 278.992188 C 126.40625 282.941406 134.015625 284.707031 142.636719 284.691406 C 151.957031 284.675781 160.179688 282.382812 167.753906 277.6875 C 174.433594 273.542969 180.585938 266.738281 182.847656 260.992188 C 186.335938 252.117188 186.304688 241.4375 182.761719 232.351562 C 180.566406 226.714844 175.464844 220.476562 170.128906 216.890625 C 166.441406 214.414062 160.011719 211.515625 151.339844 208.421875 C 131.621094 201.386719 127.773438 199.285156 125.585938 194.34375 C 124.273438 191.382812 124.285156 186.148438 125.609375 183.433594 C 127.773438 179.007812 133.464844 175.003906 139.351562 173.769531 C 142.847656 173.035156 145.449219 173.042969 149.105469 173.796875 C 154.835938 174.980469 159.152344 177.261719 165.742188 182.582031 C 170.0625 186.070312 171.695312 186.871094 173.878906 186.574219 C 178.605469 185.925781 182.628906 181.699219 183.128906 176.863281 C 183.300781 175.214844 183.15625 174.425781 182.382812 172.75 C 178.917969 165.230469 167.363281 157.300781 155.644531 154.394531 C 150.660156 153.15625 142.570312 152.824219 137.527344 153.652344 M 198.964844 171.222656 C 196.488281 173.816406 196.003906 174.820312 196.003906 177.3125 C 196.003906 179.710938 196.878906 181.355469 199.367188 183.628906 L 201.476562 185.5625 L 220.878906 185.542969 C 245.429688 185.519531 256.714844 185.128906 258.839844 184.238281 C 261.980469 182.917969 263.675781 180.464844 263.675781 177.242188 C 263.675781 174.972656 262.914062 173.488281 260.457031 170.964844 L 258.480469 168.933594 L 201.148438 168.933594 Z M 202.261719 211.464844 C 198.257812 212.328125 196.214844 214.984375 196.253906 219.265625 C 196.289062 223.136719 197.871094 225.339844 201.253906 226.226562 C 202.1875 226.472656 213.535156 226.703125 230.824219 226.824219 L 258.882812 227.027344 L 260.648438 225.0625 C 262.886719 222.574219 263.675781 220.902344 263.675781 218.648438 C 263.675781 216.53125 262.707031 214.476562 260.894531 212.734375 L 259.59375 211.484375 L 231.761719 211.296875 C 215.238281 211.183594 203.25 211.25 202.261719 211.464844 M 199.242188 254.726562 C 196.628906 257.152344 196.261719 257.953125 196.28125 261.171875 C 196.304688 264.472656 196.914062 265.820312 199.226562 267.695312 L 200.714844 268.894531 L 259.292969 269.128906 L 260.753906 267.511719 C 262.882812 265.152344 263.796875 262.847656 263.589844 260.355469 C 263.390625 257.957031 261.949219 255.496094 260.21875 254.597656 C 257.945312 253.421875 253.695312 253.25 227.324219 253.246094 L 200.835938 253.242188 Z M 199.242188 254.726562 " fill-opacity="1" fill-rule="evenodd"/></g></svg>